Genre:Action | Thriller
Language:English
IMDb:http://www.imdb.com/title/tt1117581/
Source:.BluRay.x264.DTS-HDChina Thanks!

Format : MPEG-4
Format profile : Base Media
Codec ID : isom
File size : 2.22 GiB
Duration : 1h 34mn
Overall bit rate : 3 369 Kbps


Video
ID : 1
Format : AVC
Format/Info : Advanced Video Codec
Format profile : High@L5.1
Format settings, CABAC : Yes
Format settings, ReFrames : 3 frames
Codec ID : avc1
Codec ID/Info : Advanced Video Coding
Duration : 1h 34mn
Bit rate mode : Variable
Bit rate : 3 000 Kbps
Maximum bit rate : 16.3 Mbps
Width : 1 280 pixels
Height : 536 pixels
Display aspect ratio : 2.35:1
Frame rate mode : Constant
Frame rate : 23.976 fps
Color space : YUV
Chroma subsampling : 4:2:0
Bit depth : 8 bits
Scan type : Progressive
Bits/(Pixel*Frame) : 0.182
Stream size : 1.92 GiB (87%)
Writing library : x264


Audio
ID : 2
Format : AAC
Format/Info : Advanced Audio Codec
Format version : Version 4
Format profile : LC
Format settings, SBR : No
Codec ID : 40
Duration : 1h 34mn
Bit rate mode : Variable
Bit rate : 446 Kbps
Maximum bit rate : 530 Kbps
Channel(s) : 6 channels
Channel positions : Front: L C R, Side: L R, LFE
Sampling rate : 48.0 KHz
Stream size : 301 MiB (13%)


Plot:
David Lord finds himself forced into the savage world of a modern gladiatorial arena, where men fight to the death for the entertainment of the online masses

 
http://img43.imageshack.us/img43/2397/vlcsnap00004qb.png 
http://img814.imageshack.us/img814/1751/vlcsnap00006fb.png 
http://img6.imageshack.us/img6/751/vlcsnap00007ot.png